# xmcd
#
# Track frame offsets:
#	150
#	14862
#	28912
#	41675
#	60100
#	74375
#	85537
#	104000
#	115437
#	135612
#
# Disc length: 1996 seconds
#
# Revision: 3
# Processed by: cddbd v1.5.2PL0 Copyright (c) Steve Scherf et al.
# Submitted via: MusicManager 7.3.0.0 
#
DISCID=8a07ca0a
DTITLE=Various Artist - New Country June 1996
DYEAR=1996
DGENRE=
TTITLE0=Sam Bush - Watson Allman
TTITLE1=Bill Kirchen - Womb to the Tomb
TTITLE2=Dale Watson - Truckin' Man
TTITLE3=Bob Neuwirth - I Don't Think of Her
TTITLE4=The Bum Steers - Nat King Cole Porter Wagoner Sort of Thing
TTITLE5=The Dave and Deke Combo - Slippin' and Slidin' (And Scootin' Around)
TTITLE6=Robin and Linda Williams - Sugar for Sugar
TTITLE7=Jerry Douglas and Peter Rowan - You Taught Me How to Lose
TTITLE8=The Hangdogs - Monopoly on the Blues
TTITLE9=Alison Brown - G Bop
EXTD=
EXTT0=SAM BUSH
EXTT1=BILL KIRCHEN
EXTT2=DALE WATSON
EXTT3=BOB NEUWIRTH
EXTT4=THE BUM STEERS
EXTT5=THE DAVE and DEKE COMBO
EXTT6=ROBIN and LINDA WILLIAMS
EXTT7=JERRY DOUGLAS and PETER ROWAN
EXTT8=HANGDOGS
EXTT9=ALISON BROWN
PLAYORDER=
